<svg width="23" height="31" fill="none" xmlns="http://www.w3.org/2000/svg"><g clip-path="url(#clip0)" fill="#FF6B09"><path d="M21.464 16.148c-.271-.587-.646-1.166-1.194-1.834-1.382-1.677-1.804-5.418-1.808-5.453a.455.455 0 00-.324-.382.486.486 0 00-.496.13c-1.65 1.78-.956 4.53-.581 5.629.103.3.215.655.295 1.014.609 2.901-.567 4.215-.843 4.48-.267.072-.45.036-.619-.14-.58-.614-.773-2.627-.5-5.25a5.183 5.183 0 00-.038-1.463c-.573-3.225-2.674-5.293-3.21-6.019-1.47-2.099-1.62-5.592-1.625-5.624a.438.438 0 00-.257-.385.482.482 0 00-.473.031c-2.455 1.61-2.244 5.49-1.902 7.656.08.502.234 1.013.5 1.66.952 2.309-.186 5.291-.196 5.318-.01.027-.019.05-.023.076-.145.736-.39 1.175-.66 1.175a.33.33 0 01-.09-.013c-.332-.067-.506-.408-.51-.704-.02-3.826-3.996-5.113-4.038-5.126a.477.477 0 00-.497.134.43.43 0 00-.066.494c.047.094.197.506.094 1.964a16.233 16.233 0 01-.735 3.848C.72 20.342.87 23.163.88 23.297c.727 7.638 12.106 8.977 18.86 4.674.74-.471 1.344-1.01 1.789-1.602 2.492-3.318 1.026-7.826-.066-10.22zM4.155 23.445a.454.454 0 01-.44.471h-.028a.46.46 0 01-.469-.421 15.613 15.613 0 01.019-2.086.468.468 0 01.501-.417.458.458 0 01.436.48c-.052.709-.061 1.354-.019 1.973zm.23-3.973a.46.46 0 01-.464.394c-.019 0-.038 0-.061-.004a.456.456 0 01-.408-.498l.225-1.731a.47.47 0 01.525-.39c.258.031.44.255.408.502l-.225 1.727zM18.295 6.936a.451.451 0 01-.391-.511c.029-.183.198-1.115.658-1.585a.483.483 0 01.662-.02c.189.17.198.453.021.634-.194.199-.36.767-.415 1.107a.466.466 0 01-.535.375zM1.217 9.17c-.09-.334-.312-.884-.526-1.063a.435.435 0 01-.043-.633.482.482 0 01.66-.042c.505.424.77 1.336.817 1.515a.447.447 0 01-.337.545.471.471 0 01-.57-.322z"/></g><defs><clipPath id="clip0"><path fill="#fff" transform="translate(.472 .8)" d="M0 0h22.485v29.6H0z"/></clipPath></defs></svg>