<svg width="69" height="48" viewBox="0 0 69 48" fill="none" xmlns="http://www.w3.org/2000/svg">
<g clip-path="url(#clip0)">
<path d="M30.3999 6.91205H9.94043V8.44397H30.3999V6.91205Z" fill="white"/>
<path d="M30.4 12.6238H13.0044V14.1558H30.4V12.6238Z" fill="white"/>
<path d="M30.3999 18.3361H9.94043V19.868H30.3999V18.3361Z" fill="white"/>
<path d="M30.4 24.0479H13.0044V25.5798H30.4V24.0479Z" fill="white"/>
<path d="M30.3999 29.7596H9.94043V31.2916H30.3999V29.7596Z" fill="white"/>
<path d="M30.4 35.4719H13.0044V37.0038H30.4V35.4719Z" fill="white"/>
<path d="M58.4848 6.91205H38.0254V8.44397H58.4848V6.91205Z" fill="white"/>
<path d="M55.421 12.6238H38.0254V14.1558H55.421V12.6238Z" fill="white"/>
<path d="M58.4848 18.3361H38.0254V19.868H58.4848V18.3361Z" fill="white"/>
<path d="M55.421 24.0479H38.0254V25.5798H55.421V24.0479Z" fill="white"/>
<path d="M58.4848 29.7596H38.0254V31.2916H58.4848V29.7596Z" fill="white"/>
<path d="M55.421 35.4719H38.0254V37.0038H55.421V35.4719Z" fill="white"/>
<path d="M65.8722 5.16817H63.0637V0.949918C63.0637 0.527045 62.7206 0.18396 62.2977 0.18396H39.4008C37.1664 0.18396 35.2297 1.39193 34.2133 3.20017C33.1968 1.39174 31.259 0.18396 29.0245 0.18396H6.12753C5.70466 0.18396 5.36157 0.527045 5.36157 0.949918V5.16817H2.55307C2.13019 5.16817 1.78711 5.51126 1.78711 5.93413V47.0505C1.78711 47.4734 2.13019 47.8165 2.55307 47.8165C10.2433 47.8165 58.1544 47.8165 65.8722 47.8165C66.295 47.8165 66.6381 47.4734 66.6381 47.0505V5.93413C66.6381 5.51126 66.295 5.16817 65.8722 5.16817ZM39.4008 1.71588H61.5317C61.5317 8.57507 61.5317 26.6438 61.5317 42.741H37.7666C36.7132 42.741 35.6599 43.1853 34.9786 43.7613V6.12812C34.9786 3.68285 36.9363 1.71588 39.4008 1.71588ZM6.89349 1.71588H29.0245C31.4196 1.71588 33.3579 3.57991 33.4372 5.95957C33.4382 5.99248 33.4412 6.0957 33.4467 6.12812V6.1341V6.1356V43.7583C32.7672 43.1846 31.7252 42.741 30.6686 42.741H6.89349C6.89349 26.6491 6.89349 8.57287 6.89349 1.71588ZM3.31902 6.70009H5.36157V43.507C5.36157 43.9299 5.70466 44.2729 6.12753 44.2729H30.6686C31.8362 44.2729 32.9645 45.0389 33.3257 46.2846H3.31902V6.70009ZM65.1062 46.2846H35.0999C35.4636 45.0329 36.5806 44.2729 37.7666 44.2729H62.2977C62.7206 44.2729 63.0637 43.9299 63.0637 43.507V6.70009H65.1062V46.2846Z" fill="white"/>
</g>
<defs>
<clipPath id="clip0">
<rect width="68.4255" height="48.0001" fill="white"/>
</clipPath>
</defs>
</svg>
