<svg width="40" height="48" viewBox="0 0 40 48" fill="none" xmlns="http://www.w3.org/2000/svg">
<g clip-path="url(#clip0)">
<path d="M-0.153959 47.638C5.00747 47.638 34.8677 47.638 40.023 47.638C40.222 43.0562 39.8938 35.4543 37.0768 31.8361L36.975 31.7062L30.8192 28.6154C30.9529 28.1646 31.0187 27.7516 31.0451 27.448C31.0755 27.0836 31.0253 26.7413 30.8952 26.4313C29.8796 24.0011 27.7307 22.7226 26.5486 22.1776C26.9089 21.4519 27.1411 20.6727 27.2533 19.8767C27.9224 19.6882 28.4606 19.1579 28.637 18.4505L29.3556 15.5314C29.4829 15.0165 29.403 14.4824 29.1293 14.0283C29.0115 13.8324 28.8592 13.6676 28.6884 13.5267C30.7142 8.92504 27.3213 4.58618 27.1364 4.35779C23.4617 0.384781 18.8196 1.12768 18.5742 1.17171C11.8751 2.5745 9.28981 7.70865 10.7494 13.7301C10.317 14.2091 10.1355 14.8764 10.2957 15.5307L11.0178 18.453C11.1928 19.1552 11.7268 19.6836 12.3911 19.8743C12.5961 21.3322 13.2132 22.6508 14.1196 23.7135V26.0275C4.50617 30.9506 10.5975 27.8098 2.89339 31.7072C2.87816 31.78 -0.721533 35.6057 -0.186489 46.9452L-0.153959 47.638ZM38.627 46.1834H32.0147V43.4057L36.388 33.394C38.5789 37.0304 38.6603 43.9736 38.627 46.1834ZM29.6024 27.3244C29.3472 30.2557 27.7397 29.3697 26.7474 31.628C25.9669 30.7698 25.7322 29.7407 25.9419 28.6391C26.3209 26.6163 25.0863 26.0155 25.3914 23.8902L25.4377 23.8415V23.8347C25.4639 23.8054 25.7074 23.5155 25.7778 23.4239C28.394 24.5643 29.6534 26.6853 29.6024 27.3244ZM15.5679 25.0204C16.7824 25.8628 18.2484 26.3606 19.8253 26.3606C21.3103 26.3606 22.7208 25.9286 23.93 25.1328C24.0976 26.8037 24.7507 27.1382 24.519 28.3677C24.4755 28.596 24.452 28.8209 24.4381 29.0421L19.9349 34.1174L14.1783 27.6275L15.5679 26.9018V25.0204H15.5679ZM13.7575 18.8091V15.9952C13.7575 14.959 13.7575 10.848 13.7575 11.051C14.4583 9.75481 15.4137 8.81483 16.6011 8.25126C19.7813 10.0506 23.4418 12.7359 25.8966 15.4385C25.8943 18.8801 25.9063 18.8895 25.8835 19.1723L25.8819 19.1902C25.6904 22.3155 23.1206 24.9061 19.8253 24.9061C16.6216 24.9061 13.9619 22.3908 13.7695 19.1593C13.7596 19.0435 13.7575 18.9274 13.7575 18.8091ZM12.8607 28.3294L19.9349 36.3042L24.6843 30.9514C24.7928 31.264 24.9451 31.5592 25.1192 31.8444L19.9349 38.3276L12.2041 28.659L12.8607 28.3294ZM27.345 17.6387V15.3919C27.4086 15.3189 27.9486 14.6998 27.8849 14.7728C27.9148 15.9104 28.0376 14.5677 27.345 17.6387ZM18.8423 2.60105C19.1296 2.61894 22.99 2.01386 26.0409 5.30773C26.161 5.45848 28.6446 8.65836 27.6468 12.1589C27.3053 10.6012 26.7101 8.60514 25.7693 7.65254L24.7411 8.67669C25.6699 9.61747 26.28 12.4824 26.5124 13.9676C22.2518 9.50928 16.7557 6.68751 16.6803 6.63976C16.4047 6.81119 14.0789 7.25337 12.3897 10.5364L12.3091 10.6934V13.1046C12.2366 13.1054 12.0237 13.1076 12.0962 13.1069C11.023 7.92535 13.0782 3.8092 18.8423 2.60105ZM11.9436 14.6032L12.3091 16.084V17.6405L11.7016 15.1817C11.6125 14.8152 11.884 14.6762 11.9436 14.6032ZM10.8787 29.3244L19.9349 40.6508L26.0622 32.9873C26.7287 33.5838 27.0492 33.6684 28.4624 34.3951L27.9857 32.7783C27.8648 32.3678 28.3436 31.7094 28.6328 31.4068C29.2784 31.0566 29.8165 30.5572 30.2191 29.9406L35.2183 32.4509L30.5663 43.1011V46.1834H9.30278V43.1007L4.64866 32.4519L10.8787 29.3244ZM3.48036 33.3972L7.85442 43.4061V46.1834H1.24206C1.20883 43.9743 1.29086 37.0346 3.48036 33.3972Z" fill="#FF6B09"/>
</g>
<defs>
<clipPath id="clip0">
<rect width="39.8298" height="48" fill="white"/>
</clipPath>
</defs>
</svg>
